<?xml version="1.0" standalone="no"?>
<!DOCTYPE svg PUBLIC "-//W3C//DTD SVG 20010904//EN"
 "http://www.w3.org/TR/2001/REC-SVG-20010904/DTD/svg10.dtd">
<svg version="1.0" xmlns="http://www.w3.org/2000/svg"
 width="500.000000pt" height="500.000000pt" viewBox="0 0 500.000000 500.000000"
 preserveAspectRatio="xMidYMid meet">
<metadata>
Created by potrace 1.16, written by Peter Selinger 2001-2019
</metadata>
<g transform="translate(0.000000,500.000000) scale(0.100000,-0.100000)"
fill="#000000" stroke="none">
<path fill="#000000" stroke="none" d="M0 2500 l0 -2500 2500 0 2500 0 0 2500
0 2500 -2500 0 -2500 0 0 -2500z"/>
<path fill="#ffffff" stroke="none" d="M3225 4625 c149 -30 411 -113 520 -165
266 -127 474 -345 638 -670 70 -138 144 -359 125 -372 -7 -4 -109 -8 -225 -8
l-213 0 0 29 c0 43 -57 234 -99 331 -150 345 -417 606 -786 768 -55 24 -103
47 -107 50 -9 10 2 62 14 62 6 0 66 -11 133 -25z"/>
<path fill="#ffffff" stroke="none" d="M2580 3729 c85 -380 157 -692 160 -694
4 -2 152 86 331 197 178 110 330 202 336 205 7 3 -82 -147 -197 -333 -115
-186 -209 -339 -207 -340 1 -1 283 -68 627 -148 344 -81 634 -150 645 -153
l20 -6 -20 -8 c-11 -5 -299 -74 -640 -154 -341 -80 -623 -147 -628 -148 -4 -1
85 -152 199 -336 113 -183 204 -335 202 -337 -3 -2 -153 88 -334 201 -181 112
-332 201 -336 197 -6 -7 -115 -477 -249 -1079 -35 -156 -66 -283 -69 -283 -3
0 -73 302 -155 671 -83 368 -153 675 -156 681 -4 6 -138 -71 -333 -192 -180
-111 -328 -201 -330 -199 -2 2 88 152 200 333 112 181 204 332 204 335 0 4
-215 58 -477 120 -756 179 -814 193 -810 197 2 2 291 71 643 154 351 83 642
151 645 153 3 1 -87 153 -202 337 -114 184 -206 336 -204 338 1 2 145 -85 318
-192 173 -108 322 -198 329 -201 11 -5 47 139 169 685 85 379 156 690 159 690
3 0 75 -311 160 -691z"/>
<path fill="#ffffff" stroke="none" d="M932 1532 c7 -73 74 -275 126 -379 143
-284 363 -501 662 -652 74 -37 149 -73 167 -79 29 -9 31 -13 24 -39 -7 -26
-11 -28 -55 -26 -62 4 -265 54 -416 104 -225 74 -373 162 -521 309 -180 178
-340 463 -423 749 -9 30 -16 56 -16 57 0 9 59 12 241 13 l206 1 5 -58z"/>
<path fill="#000000" stroke="none" d="M1502 3364 c14 -21 100 -160 192 -309
92 -148 171 -274 176 -279 5 -5 46 1 97 13 l88 22 23 102 c12 55 18 104 14
108 -6 6 -407 256 -576 358 l-38 24 24 -39z"/>
<path fill="#000000" stroke="none" d="M1193 2582 c-292 -70 -531 -128 -530
-129 10 -9 1082 -252 1087 -246 3 4 53 61 109 125 l103 118 -108 130 c-60 71
-113 130 -119 129 -5 -1 -249 -58 -542 -127z"/>
<path fill="#000000" stroke="none" d="M1680 1829 c-106 -170 -191 -311 -189
-313 5 -3 585 356 601 372 7 7 4 38 -11 108 -12 54 -23 100 -25 102 -6 6 -149
42 -168 42 -11 0 -80 -103 -208 -311z"/>
<path fill="#000000" stroke="none" d="M2878 2116 c-48 -11 -90 -24 -93 -28
-15 -15 -46 -181 -36 -191 14 -14 615 -386 619 -382 6 6 -384 625 -393 624 -5
-1 -49 -11 -97 -23z"/>
<path fill="#000000" stroke="none" d="M2285 1909 c-71 -61 -129 -116 -128
-122 8 -56 259 -1157 263 -1157 6 0 260 1124 260 1151 0 14 -237 231 -258 236
-4 1 -65 -48 -137 -108z"/>
</g>
</svg>
